Coordinates
version=1
nRows=6
nColumns=36
inDegrees=yes

Units are S.I. units (second, meters, Newtons, ...)
If the header above contains a line with 'inDegrees', this indicates whether rotational values are in degrees (yes) or radians (no).

endheader
time	pelvis_tilt	pelvis_list	pelvis_rotation	pelvis_tx	pelvis_ty	pelvis_tz	hip_flexion_r	hip_adduction_r	hip_rotation_r	knee_angle_r	knee_angle_r_beta	ankle_angle_r	subtalar_angle_r	mtp_angle_r	hip_flexion_l	hip_adduction_l	hip_rotation_l	knee_angle_l	knee_angle_l_beta	ankle_angle_l	subtalar_angle_l	mtp_angle_l	lumbar_extension	lumbar_bending	lumbar_rotation	arm_flex_r	arm_add_r	arm_rot_r	elbow_flex_r	pro_sup_r	arm_flex_l	arm_add_l	arm_rot_l	elbow_flex_l	pro_sup_l
      0.00000000	      2.87591335	      4.97394219	     -2.27436038	      0.74147330	      0.96923995	     -0.11272764	     -6.72088540	      4.48542812	     -1.00902572	      1.26702495	      0.02211376	     10.41257063	    -10.04457727	     -6.25660801	     14.46336261	     -1.91847424	     -5.70787040	      4.09665779	      0.07150017	      9.10591327	     -4.04498160	     -6.25660801	     -6.52091018	      0.86884929	      2.69330976	     45.84021243	     11.50791968	     64.15835307	    112.35665095	    103.75380514	     32.54755171	      8.29800010	     32.25902266	    108.94384143	    104.47771556
      0.01666670	      3.01510338	      5.42710400	     -3.39078347	      0.73737999	      0.96728843	     -0.11398799	     -6.23338660	      3.38147323	      0.16060678	      1.75165678	      0.03057218	     13.12347765	    -11.43584646	     -6.28837425	     13.44518496	     -0.94384430	     -5.74721261	      2.99630018	      0.05229530	     10.45904636	     -5.13861169	     -6.28837425	     -6.36926729	      1.18103529	      3.69103693	     49.64606556	     11.74429027	     65.57534260	    114.26302658	    103.63268856	     33.50169501	      9.35757230	     31.21904058	    108.97690269	    103.69486948
      0.03333330	      2.90350498	      6.00188236	     -3.72341854	      0.73974314	      0.97003714	     -0.10999200	     -6.36418248	      2.66935073	     -0.41070626	      1.82993258	      0.03193835	     13.19814961	    -12.55957698	     -6.31058973	     13.39387537	     -0.42074151	     -5.48520264	      2.68467305	      0.04685638	     10.72881522	     -5.74917150	     -6.31058973	     -5.94706638	      0.61186496	      4.30066512	     49.88154906	     11.85525054	     67.05490904	    114.65274186	    103.84076356	     33.99607376	      9.45279152	     30.93197302	    108.07462887	    103.05709699
      0.05000000	      3.08126668	      6.20094360	     -3.87763530	      0.73540764	      0.97022591	     -0.11159217	     -6.39592727	      2.39666511	     -0.89419998	      2.19915019	      0.03838241	     13.36084691	    -12.95871180	     -6.31523204	     13.31264267	     -0.15399938	     -5.24557303	      2.77308958	      0.04839954	     10.98244748	     -6.09590539	     -6.31523204	     -6.21987077	      0.40747582	      4.45335855	     49.81400740	     11.88927390	     67.78650999	    114.47945885	    103.91225248	     34.54829208	      9.57437583	     30.98004966	    107.60682787	    102.88993065
      0.06666670	      3.27477930	      6.11438294	     -3.97633215	      0.73447798	      0.97077345	     -0.11121943	     -6.52831201	      2.46298033	     -1.01879333	      2.25028548	      0.03927489	     13.01701897	    -13.19842418	     -6.87203016	     13.23665404	     -0.19294513	     -4.23832887	      3.01816708	      0.05267695	     10.24839608	     -7.66673846	     -6.87203016	     -6.33481245	      0.57697247	      5.23501914	     50.25499497	     11.06140544	     69.05010999	    114.03017159	    104.40817858	     34.95736690	      9.80402213	     32.38333652	    105.71795722	     93.41717983
      0.08333330	      3.25133640	      6.04263884	     -4.09238204	      0.73405429	      0.97054795	     -0.11072427	     -6.42151183	      2.55006597	     -1.00181113	      2.24622292	      0.03920399	     12.72736168	    -13.14905909	     -7.12279831	     13.39825550	     -0.24537689	     -3.78536529	      3.26115523	      0.05691790	     10.01850875	     -8.43048533	     -7.12279831	     -6.22382877	      0.79189988	      5.65655612	     50.16622984	     10.45830448	     69.75206811	    113.30471346	    103.55376986	     34.72455667	      9.80424542	     32.70018651	    105.17536488	     90.39303677
